<svg height="512pt" viewBox="0 0 512 512" width="512pt" xmlns="http://www.w3.org/2000/svg"><path d="m512 256c0 68.390625-26.628906 132.679688-74.980469 181.019531-3.699219 3.699219-7.53125 7.308594-11.371093 10.710938-46.679688 41.417969-106.886719 64.25-169.558594 64.269531h-.089844c-43.03125 0-85.28125-10.75-122.570312-31.121094l-87.480469 17.179688c-8.628907 0-17.007813-3.570313-22.988281-9.808594-7.632813-7.988281-10.582032-19.109375-7.910157-29.769531l18.789063-75.070313c-22.160156-38.519531-33.839844-82.429687-33.839844-127.410156 0-62.679688 22.828125-122.929688 64.28125-169.648438 3.390625-3.832031 6.988281-7.652343 10.707031-11.371093 48.351563-48.351563 112.640625-74.980469 181.011719-74.980469h.089844c68.351562.0195312 132.601562 26.648438 180.929687 74.980469 48.351563 48.359375 74.980469 112.640625 74.980469 181.019531zm0 0" fill="#6ed945"/><path d="m512 256c0 68.390625-26.628906 132.679688-74.980469 181.019531-3.699219 3.699219-7.53125 7.308594-11.371093 10.710938-46.679688 41.417969-106.886719 64.25-169.558594 64.269531v-512c68.351562.0195312 132.601562 26.648438 180.929687 74.980469 48.351563 48.359375 74.980469 112.640625 74.980469 181.019531zm0 0" fill="#54c12c"/><g fill="#fff"><path d="m379.46875 197.25c0 8.28125-6.707031 15-15 15h-214.296875c-8.28125 0-15-6.71875-15-15 0-8.289062 6.71875-15 15-15h214.296875c8.292969 0 15 6.710938 15 15zm0 0"/><path d="m379.46875 263.640625c0 8.28125-6.707031 15-15 15h-214.296875c-8.28125 0-15-6.71875-15-15 0-8.289063 6.71875-15 15-15h214.296875c8.292969 0 15 6.710937 15 15zm0 0"/><path d="m379.46875 330.191406c0 8.277344-6.707031 15-15 15h-214.296875c-8.28125 0-15-6.722656-15-15 0-8.292968 6.71875-15 15-15h214.296875c8.292969 0 15 6.707032 15 15zm0 0"/></g><path d="m379.46875 330.191406c0 8.277344-6.707031 15-15 15h-108.378906v-30h108.378906c8.292969 0 15 6.707032 15 15zm0 0" fill="#ddebf0"/><path d="m379.46875 263.640625c0 8.28125-6.707031 15-15 15h-108.378906v-30h108.378906c8.292969 0 15 6.710937 15 15zm0 0" fill="#ddebf0"/><path d="m364.46875 212.25h-108.378906v-30h108.378906c8.292969 0 15 6.710938 15 15 0 8.28125-6.707031 15-15 15zm0 0" fill="#ddebf0"/></svg>