<svg height="512pt" viewBox="0 0 512 512" width="512pt" xmlns="http://www.w3.org/2000/svg"><path d="m512 256c0 68.378906-26.628906 132.671875-74.980469 181.019531-48.347656 48.351563-112.640625 74.980469-181.019531 74.980469h-.070312c-68.351563-.019531-132.621094-26.648438-180.949219-74.980469-48.351563-48.347656-74.980469-112.640625-74.980469-181.019531s26.628906-132.671875 74.980469-181.019531c48.328125-48.332031 112.597656-74.9609378 180.949219-74.980469h.070312c68.378906 0 132.671875 26.628906 181.019531 74.980469 48.351563 48.347656 74.980469 112.640625 74.980469 181.019531zm0 0" fill="#fed317"/><path d="m512 256c0 68.378906-26.628906 132.671875-74.980469 181.019531-48.347656 48.351563-112.640625 74.980469-181.019531 74.980469h-.070312v-512h.070312c68.378906 0 132.671875 26.628906 181.019531 74.980469 48.351563 48.347656 74.980469 112.640625 74.980469 181.019531zm0 0" fill="#fe9e0f"/><path d="m345.210938 327.800781c-18.382813 31.769531-52.582032 51.507813-89.25 51.507813h-.03125c-36.71875-.007813-70.941407-19.796875-89.289063-51.660156-4.140625-7.167969-1.671875-16.347657 5.5-20.476563 7.179687-4.140625 16.347656-1.671875 20.488281 5.507813 13.011719 22.582031 37.269532 36.621093 63.300782 36.628906h.03125c26 0 50.238281-14 63.277343-36.527344 4.152344-7.171875 13.320313-9.621094 20.492188-5.472656 7.179687 4.152344 9.628906 13.320312 5.480469 20.492187zm0 0" fill="#ff771a"/><path d="m345.210938 327.800781c-18.382813 31.769531-52.582032 51.507813-89.25 51.507813h-.03125v-30h.03125c26 0 50.238281-14 63.277343-36.527344 4.152344-7.171875 13.320313-9.621094 20.492188-5.472656 7.179687 4.152344 9.628906 13.320312 5.480469 20.492187zm0 0" fill="#ff4a05"/><path d="m205.171875 210.761719c0 14.332031-11.617187 25.949219-25.949219 25.949219-14.332031 0-25.949218-11.617188-25.949218-25.949219s11.617187-25.949219 25.949218-25.949219c14.332032 0 25.949219 11.617188 25.949219 25.949219zm0 0" fill="#687b85"/><path d="m358.726562 210.761719c0 14.332031-11.617187 25.949219-25.949218 25.949219-14.332032 0-25.949219-11.617188-25.949219-25.949219s11.617187-25.949219 25.949219-25.949219c14.332031 0 25.949218 11.617188 25.949218 25.949219zm0 0" fill="#586b75"/></svg>