<svg height="512pt" viewBox="0 0 512 512" width="512pt" xmlns="http://www.w3.org/2000/svg"><path d="m512 256c0 24.449219-3.410156 48.378906-9.988281 71.238281-11.832031 41.082031-33.933594 78.722657-64.992188 109.78125-48.347656 48.351563-112.640625 74.980469-181.019531 74.980469s-132.671875-26.628906-181.019531-74.980469c-27.519531-27.519531-48-60.191406-60.53125-95.847656-9.5-27-14.449219-55.703125-14.449219-85.171875 0-68.378906 26.628906-132.671875 74.980469-181.019531 48.347656-48.351563 112.640625-74.980469 181.019531-74.980469s132.671875 26.628906 181.019531 74.980469c48.351563 48.347656 74.980469 112.640625 74.980469 181.019531zm0 0" fill="#a7eaf9"/><path d="m512 256c0 24.449219-3.410156 48.378906-9.988281 71.238281-11.832031 41.082031-33.933594 78.722657-64.992188 109.78125-48.347656 48.351563-112.640625 74.980469-181.019531 74.980469v-512c68.378906 0 132.671875 26.628906 181.019531 74.980469 48.351563 48.347656 74.980469 112.640625 74.980469 181.019531zm0 0" fill="#76e1f7"/><path d="m158.824219 95.5625c-32.277344 0-58.542969 26.261719-58.542969 58.542969s26.265625 58.542969 58.542969 58.542969c32.28125 0 58.546875-26.261719 58.546875-58.542969s-26.265625-58.542969-58.546875-58.542969zm0 0" fill="#fed317"/><path d="m502.011719 327.238281c-11.832031 41.082031-33.933594 78.722657-64.992188 109.78125-48.347656 48.351563-112.640625 74.980469-181.019531 74.980469s-132.671875-26.628906-181.019531-74.980469c-27.519531-27.519531-48-60.191406-60.53125-95.847656l129.371093-76.421875c17.390626-10.300781 38.789063-9.921875 55.828126 1l40.652343 26.058594c4.800781 3.082031 10.359375 4.222656 15.699219 3.480468 4.199219-.578124 8.269531-2.320312 11.710938-5.1875l63.308593-52.820312c20.21875-16.882812 49.289063-16.542969 69.121094.789062zm0 0" fill="#6ed945"/><path d="m502.011719 327.238281c-11.832031 41.082031-33.933594 78.722657-64.992188 109.78125-48.347656 48.351563-112.640625 74.980469-181.019531 74.980469v-216.710938c4.199219-.578124 8.269531-2.320312 11.710938-5.1875l63.308593-52.820312c20.21875-16.882812 49.289063-16.542969 69.121094.789062zm0 0" fill="#54c12c"/></svg>