<svg height="512pt" viewBox="0 0 512 512" width="512pt" xmlns="http://www.w3.org/2000/svg"><path d="m484.28125 331.160156c-4.25 1.460938-8.8125 2.238282-13.5625 2.238282 22.800781 0 41.28125 18.113281 41.28125 40.453124 0 22.347657-18.480469 42.117188-41.28125 42.117188 22.800781 0 41.28125 19.761719 41.28125 42.109375 0 22.351563-18.480469 40.472656-41.28125 40.472656h-255.410156c-26.058594 0-47.917969-17.582031-53.949219-41.289062h-29.5v8.207031c0 .332031 0 .671875-.019531 1v.203125c-.648438 25.148437-21.648438 45.328125-47.460938 45.328125h-36.898437c-26.230469 0-47.480469-20.828125-47.480469-46.53125v-268.597656c0-25.699219 21.25-46.542969 47.480469-46.542969h36.898437c25.160156 0 45.761719 19.203125 47.382813 43.472656h30.527343c12.359376 0 22.382813-10.28125 22.382813-22.972656v-110.109375c0-16.769531 6.617187-31.949219 17.328125-42.9375 10.699219-10.980469 25.5-17.78125 41.828125-17.78125 32.683594 0 59.171875 27.179688 59.171875 60.71875v40.78125c0 36.089844 28.5 65.351562 63.671875 65.351562h104.046875c22.800781 0 41.28125 18.109376 41.28125 40.457032 0 22.339844-18.480469 42.113281-41.28125 42.113281h-.667969v1.398437h.667969c22.800781 0 41.28125 19.769532 41.28125 42.121094 0 17.679688-11.578125 32.730469-27.71875 38.21875zm0 0" fill="#fed317"/><path d="m512 458.078125c0 22.351563-18.480469 40.472656-41.28125 40.472656h-255.410156c-26.058594 0-47.917969-17.582031-53.949219-41.289062h-29.5v8.207031c0 .332031 0 .671875-.019531 1v.203125c-.648438 25.148437-21.648438 45.328125-47.460938 45.328125h-36.898437c-26.230469 0-47.480469-20.828125-47.480469-46.53125v-132.070312h470.71875c22.800781 0 41.28125 18.113281 41.28125 40.453124 0 22.347657-18.480469 42.117188-41.28125 42.117188 22.800781 0 41.28125 19.761719 41.28125 42.109375zm0 0" fill="#fe9e0f"/><path d="m131.839844 466.46875v.203125c-.648438 25.148437-21.648438 45.328125-47.460938 45.328125h-36.898437c-26.230469 0-47.480469-20.828125-47.480469-46.53125v-268.597656c0-25.699219 21.25-46.542969 47.480469-46.542969h36.898437c25.160156 0 45.761719 19.203125 47.382813 43.472656h.019531l.027344 139.597657zm0 0" fill="#6ed945"/><path d="m131.839844 466.46875v.203125c-.648438 25.148437-21.648438 45.328125-47.460938 45.328125h-36.898437c-26.230469 0-47.480469-20.828125-47.480469-46.53125v-132.070312h131.808594zm0 0" fill="#54c12c"/></svg>