<svg height="512pt" viewBox="0 0 512 512" width="512pt" xmlns="http://www.w3.org/2000/svg"><path d="m103.550781 158.480469h31.527344v65.886719h-31.527344zm0 0" fill="#fed317"/><path d="m411.382812 406.371094-39.941406-125.605469 30.105469-9.1875 39.941406 125.609375zm0 0" fill="#fe9e0f"/><path d="m223.039062 292.910156-15.339843-26.984375 75.191406-41.023437 15.339844 26.984375zm0 0" fill="#fe9e0f"/><path d="m239.65625 321.457031c0 32.300781-13.386719 61.609375-35.027344 82.851563-21.691406 21.316406-51.699218 34.527344-84.800781 34.527344-.167969 0-.347656 0-.519531-.007813-65.828125-.273437-119.308594-52.8125-119.308594-117.371094 0-32.417969 13.488281-61.808593 35.257812-83.058593 21.582032-21.089844 51.28125-34.179688 84.050782-34.308594.171875-.011719.351562-.011719.519531-.011719 66.082031 0 119.828125 52.648437 119.828125 117.378906zm0 0" fill="#3caafd"/><path d="m464.625 197.394531c0-54.183593-45.003906-98.269531-100.320312-98.269531-27.628907 0-52.695313 11.007812-70.867188 28.785156-18.183594 17.800782-29.441406 42.378906-29.441406 69.484375 0 54.175781 44.996094 98.261719 100.308594 98.261719 27.675781 0 52.761718-11.035156 70.933593-28.847656 18.152344-17.789063 29.386719-42.34375 29.386719-69.414063zm0 0" fill="#0083db"/><path d="m206.328125 85.289062c0 23.769532-9.980469 45.308594-26.050781 60.78125-15.71875 15.136719-37.238282 24.5-60.96875 24.507813h-.050782c-48.007812 0-87.066406-38.257813-87.066406-85.289063 0-23.257812 9.558594-44.359374 25.019532-59.769531 15.796874-15.738281 37.777343-25.519531 62.046874-25.519531h.050782c47.988281.03125 87.019531 38.28125 87.019531 85.289062zm0 0" fill="#3caafd"/><path d="m441.488281 373.851562c-19.078125 0-36.417969 7.453126-49.125 19.558594-13.179687 12.5625-21.390625 30.117188-21.390625 49.511719 0 38.085937 31.636719 69.074219 70.515625 69.074219 19.800781 0 37.71875-8.042969 50.542969-20.949219 12.359375-12.449219 19.96875-29.4375 19.96875-48.125 0-38.09375-31.636719-69.070313-70.511719-69.070313zm0 0" fill="#0083db"/><path d="m119.308594 158.480469h15.769531v65.886719h-15.769531zm0 0" fill="#fe9e0f"/><g fill="#0083db"><path d="m180.277344 146.070312c-15.71875 15.136719-37.238282 24.5-60.96875 24.507813v-170.578125c47.988281.03125 87.019531 38.28125 87.019531 85.289062 0 23.769532-9.980469 45.308594-26.050781 60.78125zm0 0"/><path d="m239.65625 321.457031c0 32.300781-13.386719 61.609375-35.027344 82.851563-21.691406 21.316406-51.699218 34.527344-84.800781 34.527344-.167969 0-.347656 0-.519531-.007813v-234.738281c.171875-.011719.351562-.011719.519531-.011719 66.082031 0 119.828125 52.648437 119.828125 117.378906zm0 0"/></g></svg>