<svg height="512pt" viewBox="0 0 512 512" width="512pt" xmlns="http://www.w3.org/2000/svg"><path d="m512 65.671875v380.667969c0 36.199218-29.449219 65.660156-65.660156 65.660156h-380.667969c-36.210937 0-65.671875-29.460938-65.671875-65.660156v-380.667969c0-36.210937 29.460938-65.671875 65.671875-65.671875h380.667969c36.210937 0 65.660156 29.460938 65.660156 65.671875zm0 0" fill="#ddebf0"/><path d="m512 65.671875v380.667969c0 36.199218-29.449219 65.660156-65.660156 65.660156h-190.160156v-512h190.160156c36.210937 0 65.660156 29.460938 65.660156 65.671875zm0 0" fill="#c4e1e8"/><path d="m512 446.339844c0 36.199218-29.449219 65.660156-65.660156 65.660156h-380.667969c-36.210937 0-65.671875-29.460938-65.671875-65.660156zm0 0" fill="#687b85"/><path d="m297.328125 65.039062c0 8.289063-6.707031 15-15 15h-52.648437c-8.289063 0-15-6.710937-15-15 0-8.277343 6.710937-15 15-15h52.648437c8.292969 0 15 6.722657 15 15zm0 0" fill="#687b85"/><path d="m282.328125 80.039062h-26.148437v-30h26.148437c8.292969 0 15 6.722657 15 15 0 8.289063-6.707031 15-15 15zm0 0" fill="#586b75"/><path d="m512 446.339844c0 36.199218-29.449219 65.660156-65.660156 65.660156h-190.160156v-65.660156zm0 0" fill="#586b75"/><path d="m341.976562 255.429688c0 13.671874-7.0625 25.910156-18.902343 32.742187l-66.898438 38.628906-23.089843 13.332031c-5.921876 3.40625-12.410157 5.117188-18.910157 5.117188-6.492187 0-12.980469-1.710938-18.902343-5.117188-11.839844-6.84375-18.898438-19.082031-18.898438-32.75v-103.910156c0-13.671875 7.058594-25.910156 18.898438-32.742187 11.839843-6.828125 25.972656-6.839844 37.8125 0l23.089843 13.332031 66.898438 38.628906c11.839843 6.828125 18.902343 19.070313 18.902343 32.738282zm0 0" fill="#ff771a"/><path d="m341.976562 255.429688c0 13.671874-7.0625 25.910156-18.902343 32.742187l-66.898438 38.628906v-142.738281l66.898438 38.628906c11.839843 6.828125 18.902343 19.070313 18.902343 32.738282zm0 0" fill="#ff4a05"/></svg>