<svg height="512" viewBox="0 0 34 58" width="512" xmlns="http://www.w3.org/2000/svg"><g id="Page-1" fill="none" fill-rule="evenodd"><g id="009---Share" fill-rule="nonzero"><path id="Shape" d="m34 47v8c0 1.6568542-1.3431458 3-3 3h-28c-1.65685425 0-3-1.3431458-3-3v-8c0 1.6568542 1.34314575 3 3 3h28c1.6568542 0 3-1.3431458 3-3z" fill="#3f5c6c"/><path id="Shape" d="m7 0h-4c-1.65685425 0-3 1.34314575-3 3v47c-.00200134.1642242.01139053.3282746.04.49.24508991 1.4451048 1.4942697 2.5043755 2.96 2.51h28c1.6568542 0 3-1.3431458 3-3v-47c-.0070425-1.00332608-.5083759-1.93864962-1.34-2.5-.4935388-.32325907-1.0700277-.49690031-1.66-.5z" fill="#26b99a"/><path id="Shape" d="m32.66.5c-6.15 2.51-31.46 14.92-32.62 49.99-.02860947-.1617254-.04200134-.3257758-.04-.49v-47c0-1.65685425 1.34314575-3 3-3h4l2.86 3.05c.5663757.60708315 1.3597411.95123705 2.19.95h9.9c.8302589.00123705 1.6236243-.34291685 2.19-.95l2.86-3.05h4c.5899723.00309969 1.1664612.17674093 1.66.5z" fill="#81ccb8"/><path id="Shape" d="m27 0-2.86 3.05c-.5663757.60708315-1.3597411.95123705-2.19.95h-9.9c-.8302589.00123705-1.6236243-.34291685-2.19-.95l-2.86-3.05z" fill="#3f5c6c"/><path id="Rectangle-path" d="m16 24.746h2.001v16.507h-2.001z" fill="#ecf0f1" transform="matrix(.53 -.848 .848 .53 -19.994 29.933)"/><path id="Rectangle-path" d="m9.925 22h14.149v2.001h-14.149z" fill="#ecf0f1" transform="matrix(.848 -.53 .53 .848 -9.608 12.51)"/><g fill="#fff"><path id="Shape" d="m7 49h-2c-.55228475 0-1-.4477153-1-1s.44771525-1 1-1h2c.55228475 0 1 .4477153 1 1s-.44771525 1-1 1z"/><path id="Shape" d="m29 49h-18c-.5522847 0-1-.4477153-1-1s.4477153-1 1-1h18c.5522847 0 1 .4477153 1 1s-.4477153 1-1 1z"/><circle id="Oval" cx="9" cy="28" r="4"/><circle id="Oval" cx="25" cy="18" r="4"/><circle id="Oval" cx="25" cy="38" r="4"/></g></g></g></svg>