<svg height="512" viewBox="0 0 58 58" width="512" xmlns="http://www.w3.org/2000/svg"><g id="Page-1" fill="none" fill-rule="evenodd"><g id="008---Video" fill-rule="nonzero"><path id="Shape" d="m54.66 8.02c-.4848617-.43404657-1.0684609-.74301085-1.7-.9-.3136331-.08046064-.6362114-.12078293-.96-.12h-46c-2.209139 0-4 1.790861-4 4v40h54.0000168l-.0000168-40c.0033153-1.13995312-.4850347-2.22598514-1.34-2.98z" fill="#26b99a"/><path id="Shape" d="m52 58h-46c-3.3137085 0-6-2.6862915-6-6v-3c0-.5522847.44771525-1 1-1h56c.5522847 0 1 .4477153 1 1v3c0 3.3137085-2.6862915 6-6 6z" fill="#547580"/><path id="Shape" d="m19 48h20v2c0 1.6568542-1.3431458 3-3 3h-14c-1.6568542 0-3-1.3431458-3-3z" fill="#3f5c6c"/><path id="Shape" d="m52.96 7.12c-11.4.73-50.96 5.79-50.96 40.88v-37c0-2.209139 1.790861-4 4-4h46c.3237886-.00078293.6463669.03953936.96.12z" fill="#81ccb8"/><path id="Shape" d="m14 53h-3c-.5522847 0-1-.4477153-1-1s.4477153-1 1-1h3c.5522847 0 1 .4477153 1 1s-.4477153 1-1 1z" fill="#3f5c6c"/><circle id="Oval" cx="5" cy="52" fill="#4fba6f" r="1"/><circle id="Oval" cx="8" cy="52" fill="#f3d55b" r="1"/><circle id="Oval" cx="29" cy="8" fill="#547580" r="8"/><circle id="Oval" cx="29" cy="8" fill="#393f4a" r="3"/><circle id="Oval" cx="7" cy="12" fill="#e64c3c" r="1"/><circle id="Oval" cx="11" cy="12" fill="#f3d55b" r="1"/><circle id="Oval" cx="15" cy="12" fill="#4fba6f" r="1"/><rect id="Rectangle-path" fill="#fff" height="8" rx="1" width="8" x="6" y="36"/><circle id="Oval" cx="42" cy="14" fill="#f3d55b" r="2"/><circle id="Oval" cx="50" cy="14" fill="#f3d55b" r="2"/><path id="Shape" d="m34.03 36.22c2.6173387 1.3414045 4.5860838 3.6780282 5.464 6.485.0913713.3046537.0332895.6345723-.1566315.8897048s-.4893079.4054233-.8073685.4052952h-19.06c-.3192468.0006091-.6198327-.1503474-.8099896-.4067831s-.2473099-.587907-.1540104-.8932169c.8790836-2.8050998 2.8476847-5.1397511 5.464-6.48z" fill="#3b97d3"/><path id="Shape" d="m52 37c-.5522847 0-1-.4477153-1-1v-13c0-.5522847.4477153-1 1-1s1 .4477153 1 1v13c0 .5522847-.4477153 1-1 1z" fill="#fff"/><path id="Shape" d="m52 44c-.5522847 0-1-.4477153-1-1v-3c0-.5522847.4477153-1 1-1s1 .4477153 1 1v3c0 .5522847-.4477153 1-1 1z" fill="#fff"/><path id="Shape" d="m37 28v2c0 4.418278-3.581722 8-8 8s-8-3.581722-8-8v-2c0-4.418278 3.581722-8 8-8s8 3.581722 8 8z" fill="#fdd7ad"/></g></g></svg>